<svg width="23" height="23" viewBox="0 0 23 23" fill="none" xmlns="http://www.w3.org/2000/svg">
<path fill-rule="evenodd" clip-rule="evenodd" d="M13.6296 2.12963C13.6296 0.953468 12.6762 0 11.5 0C10.3238 0 9.37037 0.953469 9.37037 2.12963V9.37109H2.12963C0.953468 9.37109 0 10.3246 0 11.5007C0 12.6769 0.953469 13.6304 2.12963 13.6304H9.37037V20.8704C9.37037 22.0465 10.3238 23 11.5 23C12.6762 23 13.6296 22.0465 13.6296 20.8704V13.6304H20.8704C22.0465 13.6304 23 12.6769 23 11.5007C23 10.3246 22.0465 9.37109 20.8704 9.37109H13.6296V2.12963Z" fill="white"/>
</svg>
