<svg width="686" height="939" viewBox="0 0 686 939" fill="none" xmlns="http://www.w3.org/2000/svg">
<path d="M685.912 428.352V0H0V428.352C0 742.217 342.956 938.48 342.956 938.48C342.956 938.48 685.912 742.217 685.912 428.352ZM342.956 900.318C291.998 868.386 34.781 695.488 34.781 428.352V33.4894H651.131V428.352C651.131 694.709 393.914 867.607 342.956 900.318Z" fill="#C9E2FF"/>
<path d="M372.065 753.116H401.992C398.757 785.047 374.491 799.845 345.372 799.845C308.165 799.845 283.899 774.923 283.899 740.654C283.899 701.713 310.592 678.349 345.372 678.349C376.109 678.349 397.948 693.146 401.184 723.52H370.447C368.02 710.28 359.932 703.271 346.181 703.271C328.386 703.271 317.871 715.732 317.871 738.318C317.871 764.798 328.386 775.701 346.99 775.701C359.932 775.701 370.447 767.913 372.065 753.116Z" fill="#C9E2FF"/>
<path d="M524.927 355.92C490.146 355.92 461.027 377.727 444.849 394.861H384.994L452.938 329.44C476.395 330.219 512.794 325.546 537.868 302.182C577.502 264.798 564.561 198.598 564.561 198.598C564.561 198.598 496.616 186.137 456.982 224.3C432.716 246.885 428.672 282.711 428.672 306.076L360.728 371.497V262.462C376.905 246.885 401.171 218.848 401.171 185.359C401.171 132.399 342.933 94.2363 342.933 94.2363C342.933 94.2363 285.504 133.177 285.504 185.359C285.504 218.848 308.152 246.885 325.947 262.462V371.497L258.003 306.076C258.003 283.49 253.959 247.664 229.693 224.3C190.059 186.137 122.115 198.598 122.115 198.598C122.115 198.598 109.173 264.798 147.998 302.182C172.264 325.546 209.471 330.219 233.737 329.44L301.681 394.861H241.826C224.84 378.506 195.721 355.92 161.749 355.92C105.938 355.92 66.3035 411.995 66.3035 411.995C66.3035 411.995 106.746 467.292 161.749 467.292C196.53 467.292 225.649 445.485 241.826 428.351H320.285L303.299 542.059C298.446 573.99 274.18 584.894 267.709 587.23H245.87V620.72H440.805V587.23H418.157C411.686 584.894 387.421 573.99 382.567 542.059L365.581 428.351H444.849C461.027 444.706 489.337 467.292 524.927 467.292C578.311 467.292 620.372 411.995 620.372 411.995C620.372 411.995 579.12 355.92 524.927 355.92ZM481.248 247.664C494.999 234.424 516.838 230.53 531.397 229.751C530.589 243.77 526.544 265.577 512.794 278.038C499.043 291.278 477.204 295.172 462.644 295.951C463.453 281.932 466.689 260.125 481.248 247.664ZM171.455 278.038C157.705 264.798 154.469 243.77 153.66 229.751C168.22 230.53 190.059 234.424 203.809 247.664C217.56 260.904 220.796 281.932 221.604 295.951C207.045 295.172 185.206 291.278 171.455 278.038ZM160.131 433.024C140.719 433.024 122.115 420.563 111.6 411.217C122.115 401.092 140.719 389.41 160.131 389.41C179.544 389.41 197.339 401.871 208.663 411.217C197.339 421.341 179.544 433.024 160.131 433.024ZM319.476 184.58C319.476 165.888 333.227 148.754 342.124 137.85C352.64 148.754 364.772 165.888 364.772 184.58C364.772 204.05 351.831 221.184 342.124 232.088C332.418 221.184 319.476 203.271 319.476 184.58ZM342.124 587.23H319.476C334.845 565.423 334.845 546.732 339.698 508.569H344.551C349.404 546.732 348.595 565.423 364.772 587.23H342.124ZM524.927 433.024C505.514 433.024 486.91 420.563 476.395 411.217C486.91 401.871 505.514 389.41 524.927 389.41C544.339 389.41 562.134 401.871 573.458 411.217C562.134 421.341 544.339 433.024 524.927 433.024Z" fill="#C9E2FF"/>
</svg>
