<svg width="219" height="138" viewBox="0 0 219 138" fill="none" xmlns="http://www.w3.org/2000/svg">
<path d="M56.8235 19.6737H23.7092L23.0193 32.0681C26.6986 26.2315 32.5462 23.3133 40.562 23.3133C47.198 23.3133 52.3557 25.4118 56.035 29.6088C59.7801 33.7403 61.6526 39.708 61.6526 47.5119C61.6526 55.1846 58.9588 61.3162 53.5712 65.9067C48.2492 70.4973 40.6605 72.7925 30.8051 72.7925C20.9496 72.7925 13.5252 70.4973 8.53176 65.9067C3.60403 61.3162 1.07447 55.2502 0.943062 47.7086H24.5961C24.7275 49.5448 25.2532 50.9548 26.173 51.9384C27.0929 52.8565 28.5712 53.3156 30.608 53.3156C33.8274 53.3156 35.4371 51.2171 35.4371 47.02C35.4371 42.5607 33.1704 40.331 28.6369 40.331C24.6947 40.331 21.6724 41.7081 19.5699 44.4625H2.91415L5.1809 1.08205H56.8235V19.6737Z" fill="white"/>
<path d="M109.591 35.1175C109.591 29.4777 108.934 25.5102 107.62 23.2149C106.306 20.8541 103.973 19.6737 100.622 19.6737C97.2716 19.6737 94.9392 20.8541 93.6251 23.2149C92.311 25.5102 91.654 29.4449 91.654 35.0191V37.3799C91.654 42.9541 92.311 46.9217 93.6251 49.2825C94.9392 51.5778 97.3373 52.7254 100.82 52.7254C104.105 52.7254 106.371 51.545 107.62 49.1841C108.934 46.7577 109.591 42.823 109.591 37.3799V35.1175ZM135.609 36.7897C135.609 48.2004 132.39 57.0536 125.951 63.3492C119.512 69.6447 110.839 72.7925 99.9326 72.7925C89.1573 72.7925 80.7473 69.7759 74.7026 63.7426C68.658 57.6438 65.6356 48.889 65.6356 37.4783V35.1175C65.6356 24.0346 68.9208 15.411 75.4911 9.24661C82.0614 3.0822 90.4056 0 100.524 0C107.16 0 113.04 1.18042 118.165 3.54125C123.29 5.83651 127.462 9.64009 130.682 14.952C133.967 20.2639 135.609 26.789 135.609 34.5273V36.7897Z" fill="white"/>
<path d="M158.971 24.297C161.731 24.297 163.111 22.2312 163.111 18.0998C163.111 14.0994 161.731 12.0993 158.971 12.0993C157.592 12.0993 156.54 12.6239 155.818 13.6732C155.095 14.7224 154.734 16.1652 154.734 18.0014C154.734 22.1984 156.146 24.297 158.971 24.297ZM173.656 31.0844C170.174 34.7568 165.246 36.593 158.873 36.593C152.434 36.593 147.506 34.8879 144.09 31.4778C140.673 28.0022 138.965 23.5428 138.965 18.0998C138.965 12.9846 140.837 8.72198 144.582 5.31188C148.327 1.90178 153.124 0.196734 158.971 0.196734C164.753 0.196734 169.517 1.83621 173.262 5.11515C177.007 8.39409 178.879 12.5911 178.879 17.7063C178.879 23.1493 177.138 27.6087 173.656 31.0844ZM158.479 71.4154H147.736L199.674 1.08205H210.417L158.479 71.4154ZM198.787 60.4965C201.547 60.4965 202.927 58.4307 202.927 54.2993C202.927 50.299 201.547 48.2988 198.787 48.2988C197.408 48.2988 196.356 48.8234 195.634 49.8727C194.911 50.922 194.55 52.3647 194.55 54.2009C194.55 58.398 195.962 60.4965 198.787 60.4965ZM213.472 67.2839C209.99 70.9563 205.062 72.7925 198.689 72.7925C192.25 72.7925 187.322 71.0875 183.906 67.6774C180.489 64.2017 178.781 59.7423 178.781 54.2993C178.781 49.1841 180.653 44.9215 184.398 41.5114C188.143 38.1013 192.94 36.3963 198.787 36.3963C204.569 36.3963 209.333 38.0357 213.078 41.3147C216.823 44.5936 218.695 48.7907 218.695 53.9058C218.695 59.3488 216.954 63.8082 213.472 67.2839Z" fill="white"/>
<path d="M34.1216 116.526C34.0417 120.877 32.5819 124.25 29.7424 126.645C26.9429 129.04 22.7836 130.237 17.2645 130.237C12.1854 130.237 8.06612 128.88 4.90667 126.166C1.74721 123.451 0.16748 119.46 0.16748 114.191V113.712C0.16748 108.442 1.8072 104.371 5.08664 101.497C8.40606 98.5828 12.6053 97.1259 17.6845 97.1259C22.2437 97.1259 26.023 98.2436 29.0225 100.479C32.062 102.674 33.7017 106.167 33.9417 110.957H21.1639C21.0439 110.199 20.9039 109.62 20.7439 109.221C20.624 108.822 20.324 108.462 19.8441 108.143C19.4042 107.784 18.8043 107.604 18.0444 107.604C16.6447 107.604 15.6448 108.063 15.0449 108.981C14.445 109.899 14.1451 111.396 14.1451 113.472V113.951C14.1451 116.186 14.445 117.823 15.0449 118.861C15.6448 119.899 16.7046 120.418 18.2244 120.418C20.384 120.418 21.5838 119.12 21.8238 116.526H34.1216Z" fill="white"/>
<path d="M50.6094 118.382V129.399H36.8718V98.0839H50.6094V109.221L56.6684 98.0839H70.586L62.0075 112.334L71.2459 129.399H56.1885L50.6094 118.382Z" fill="white"/>
<path d="M73.428 129.399V98.0839H86.9257V112.754L94.1245 98.0839H107.142V129.399H93.6445V114.969L86.4458 129.399H73.428Z" fill="white"/>
<path d="M125.004 113.472C124.724 116.067 124.304 118.103 123.744 119.579H129.923V107.604H125.304C125.224 110.398 125.124 112.354 125.004 113.472ZM121.464 137.004H109.946V119.579H111.746C112.546 119.22 113.126 118.502 113.486 117.424C113.846 116.306 114.126 114.55 114.326 112.155C114.565 108.802 114.705 105.788 114.745 103.114C114.785 102.036 114.805 100.359 114.805 98.0839H143.301V119.579H147.44V137.004H135.922L135.562 129.399H121.824L121.464 137.004Z" fill="white"/>
<path d="M163.969 118.382V129.399H150.231V98.0839H163.969V109.221L170.028 98.0839H183.945L175.367 112.334L184.605 129.399H169.548L163.969 118.382Z" fill="white"/>
<path d="M217.523 129.399H204.326V125.867C202.606 128.781 199.586 130.237 195.267 130.237C192.228 130.237 189.688 129.459 187.648 127.902C185.609 126.306 184.589 123.911 184.589 120.717C184.589 117.045 185.949 114.43 188.668 112.873C191.428 111.277 195.787 110.478 201.746 110.478H203.966V110.299C203.966 109.46 203.926 108.822 203.846 108.383C203.766 107.904 203.506 107.465 203.066 107.065C202.626 106.626 201.986 106.407 201.146 106.407C199.626 106.407 198.706 107.305 198.387 109.101H185.669C185.869 105.269 187.388 102.315 190.228 100.239C193.107 98.1637 197.027 97.1259 201.986 97.1259C212.344 97.1259 217.523 101.177 217.523 109.281V129.399ZM203.966 117.424H201.866C200.306 117.424 199.286 117.584 198.806 117.903C198.327 118.182 198.087 118.721 198.087 119.52C198.087 120.677 198.926 121.256 200.606 121.256C201.606 121.256 202.406 120.997 203.006 120.478C203.646 119.919 203.966 119.24 203.966 118.442V117.424Z" fill="white"/>
</svg>
