<svg width="85" height="48" viewBox="0 0 85 48" fill="none" xmlns="http://www.w3.org/2000/svg">
<path d="M39.6847 19.3591H42.6905C44.3646 19.3591 45.2397 20.0546 45.2397 21.4071C45.2397 22.3345 44.8592 22.9142 43.9841 23.146C44.9734 23.3779 45.5061 23.9575 45.5061 25.0008C45.5061 26.5465 44.6309 27.2807 42.8427 27.2807H39.6847V19.3591ZM41.3588 20.557V22.605H42.3861C43.2232 22.605 43.5656 22.2959 43.5656 21.5617C43.5656 20.8661 43.2232 20.557 42.3861 20.557H41.3588ZM41.3588 23.7643V26.0442H42.5383C43.3754 26.0442 43.7558 25.6191 43.7558 24.9235C43.7558 24.1507 43.3754 23.7643 42.4242 23.7643H41.3588ZM51.8982 21.4844V27.2807H50.3382V26.3533C50.0338 26.9329 49.5011 27.3966 48.5499 27.3966C47.2563 27.3966 46.6475 26.4306 46.6475 25.194V21.4458H48.2075V24.9622C48.2075 25.735 48.5499 26.1214 49.1967 26.1214C49.8436 26.1214 50.3382 25.6964 50.3382 24.8463V21.4458H51.8982V21.4844ZM52.9635 25.4645H54.4093C54.4854 25.9669 54.7137 26.276 55.3986 26.276C56.0073 26.276 56.2737 26.0442 56.2737 25.6577C56.2737 25.2713 55.9313 25.0781 55.1322 24.9622C54.3713 24.8463 53.8767 24.6917 53.5342 24.3825C53.1918 24.1121 53.0396 23.7256 53.0396 23.146C53.0396 21.8708 54.2571 21.3298 55.2464 21.3298C56.4639 21.3298 57.4151 21.8322 57.5673 23.146H56.1595C56.0834 22.6823 55.8171 22.4504 55.2844 22.4504C54.7898 22.4504 54.4854 22.6823 54.4854 23.0687C54.4854 23.4551 54.7518 23.5711 55.5508 23.7256C56.7303 23.9189 57.7195 24.228 57.7195 25.5418C57.7195 26.817 56.8444 27.4739 55.3605 27.4739C53.9147 27.3966 53.0396 26.7011 52.9635 25.4645ZM58.7849 19.8228C58.7849 19.3204 59.1653 18.934 59.66 18.934C60.1546 18.934 60.5351 19.3204 60.5351 19.8228C60.5351 20.3251 60.1546 20.7116 59.66 20.7116C59.1653 20.6729 58.7849 20.3251 58.7849 19.8228ZM60.459 21.4844V27.2807H58.9371V21.4844H60.459ZM63.5409 21.4844V22.4118C63.8453 21.8322 64.416 21.3298 65.3672 21.3298C65.9379 21.3298 66.3945 21.523 66.6989 21.8708C67.0413 22.2186 67.2316 22.7982 67.2316 23.5711V27.2421H65.6716V23.7643C65.6716 22.9528 65.3672 22.605 64.6823 22.605C64.0355 22.605 63.5409 23.0301 63.5409 23.8802V27.2421H61.9809V21.4458H63.5409V21.4844ZM73.928 25.4645C73.7378 26.7011 72.7866 27.3966 71.2647 27.3966C69.5525 27.3966 68.3349 26.1987 68.3349 24.4598C68.3349 22.5277 69.5525 21.3298 71.2266 21.3298C73.0149 21.3298 73.9661 22.605 73.9661 24.3053V24.7303H69.933C69.971 25.6964 70.4656 26.2374 71.3408 26.2374C72.0637 26.2374 72.4061 25.9282 72.5202 25.4259H73.928V25.4645ZM71.2266 22.4504C70.5417 22.4504 70.0471 22.9141 69.933 23.7643H72.4442C72.4061 22.8755 71.9876 22.4504 71.2266 22.4504ZM74.689 25.4645H76.1348C76.2109 25.9669 76.4392 26.276 77.1241 26.276C77.7328 26.276 77.9992 26.0442 77.9992 25.6577C77.9992 25.2713 77.6567 25.0781 76.8577 24.9622C76.0968 24.8463 75.6022 24.6917 75.2597 24.3825C74.9173 24.1121 74.7651 23.7256 74.7651 23.146C74.7651 21.8708 75.9826 21.3298 76.9719 21.3298C78.1894 21.3298 79.1406 21.8322 79.2928 23.146H77.885C77.8089 22.6823 77.5426 22.4504 77.0099 22.4504C76.5153 22.4504 76.2109 22.6823 76.2109 23.0687C76.2109 23.4551 76.4773 23.5711 77.2763 23.7256C78.4558 23.9189 79.445 24.228 79.445 25.5418C79.445 26.817 78.5699 27.4739 77.086 27.4739C75.6402 27.3966 74.7651 26.7011 74.689 25.4645ZM80.244 25.4645H81.6899C81.766 25.9669 81.9942 26.276 82.6791 26.276C83.2879 26.276 83.5542 26.0442 83.5542 25.6577C83.5542 25.2713 83.2118 25.0781 82.4128 24.9622C81.6518 24.8463 81.1572 24.6917 80.8148 24.3825C80.4723 24.1121 80.3201 23.7256 80.3201 23.146C80.3201 21.8708 81.5377 21.3298 82.5269 21.3298C83.7445 21.3298 84.6957 21.8322 84.8478 23.146H83.4401C83.364 22.6823 83.0976 22.4504 82.565 22.4504C82.0703 22.4504 81.766 22.6823 81.766 23.0687C81.766 23.4551 82.0323 23.5711 82.8313 23.7256C84.0108 23.9189 85 24.228 85 25.5418C85 26.817 84.1249 27.4739 82.6411 27.4739C81.1572 27.3966 80.2821 26.7011 80.244 25.4645Z" fill="#1759F7"/>
<path d="M46.4953 10.5485C46.3051 12.5193 44.9354 13.524 43.071 13.524C40.5979 13.524 39.2281 11.9783 39.2281 9.46657C39.2281 7.07076 40.7881 5.33187 43.033 5.33187C44.8593 5.33187 46.229 6.33657 46.4192 8.23003H44.631C44.5168 7.26398 44.0222 6.76163 43.033 6.76163C41.8154 6.76163 41.0545 7.72768 41.0545 9.38929C41.0545 11.1282 41.7774 12.0942 43.033 12.0942C43.9842 12.0942 44.631 11.5919 44.7832 10.5872H46.4953V10.5485ZM47.5227 5.9115C47.5227 5.40916 47.9031 5.02274 48.3978 5.02274C48.8924 5.02274 49.2729 5.40916 49.2729 5.9115C49.2729 6.41385 48.8924 6.80027 48.3978 6.80027C47.9031 6.80027 47.5227 6.41385 47.5227 5.9115ZM49.1587 7.61175V13.4081H47.6368V7.61175H49.1587ZM50.947 11.6692V8.73237H50.2241V7.61175H50.947V6.33656H52.5069V7.61175H53.6864V8.73237H52.5069V11.5146C52.5069 11.9783 52.6972 12.2102 53.1157 12.2102C53.344 12.2102 53.5343 12.1715 53.7245 12.0942V13.3308C53.4962 13.4081 53.1918 13.4853 52.7733 13.4853C51.5938 13.4853 50.947 12.8671 50.947 11.6692ZM54.3333 7.61175H56.0074L57.3391 11.0895L58.5947 7.61175H60.0785L57.0347 15.3788H55.5508L56.5401 12.8284L54.3333 7.61175Z" fill="#1759F7"/>
<path d="M39.4564 37.7913H41.0925C41.2447 38.7574 41.7393 39.1051 42.6144 39.1051C43.3754 39.1051 43.87 38.6801 43.87 38.0618C43.87 37.2503 43.0329 37.1344 42.4242 37.0185C40.8642 36.7866 39.6847 36.3229 39.6847 34.6227C39.6847 33.0384 41.1686 32.2655 42.4622 32.2655C44.1744 32.2655 45.2017 33.0384 45.3158 34.6227H43.7178C43.6037 33.9271 43.1851 33.5793 42.4242 33.5793C41.6632 33.5793 41.2827 33.9271 41.2827 34.4681C41.2827 35.2796 42.1198 35.3955 42.6905 35.4728C44.2505 35.7047 45.5061 36.1297 45.5061 37.8686C45.5061 39.5302 44.0222 40.3803 42.5764 40.3803C40.8642 40.419 39.5706 39.6461 39.4564 37.7913ZM50.5665 38.0618H51.9743C51.8221 39.6461 50.6806 40.3803 49.3109 40.3803C47.5607 40.3803 46.4192 39.1438 46.4192 37.4435C46.4192 35.5114 47.6748 34.3522 49.3109 34.3522C50.7567 34.3522 51.784 35.0864 51.9362 36.5934H50.4904C50.3762 35.9365 49.9958 35.5887 49.3489 35.5887C48.5119 35.5887 48.0173 36.207 48.0173 37.3276C48.0173 38.6414 48.5119 39.1824 49.387 39.1824C49.9958 39.2211 50.4904 38.8346 50.5665 38.0618ZM53.0396 31.8791H54.5996V35.4342C54.904 34.8545 55.4747 34.3908 56.4259 34.3908C57.7576 34.3908 58.2903 35.4342 58.2903 36.6321V40.3417H56.7683V36.8639C56.7683 36.0524 56.4639 35.7047 55.7791 35.7047C55.0942 35.7047 54.5996 36.1297 54.5996 36.9798V40.3417H53.0396V31.8791ZM69.0579 40.419C67.3838 40.419 66.1282 39.2597 66.1282 37.4822C66.1282 35.5887 67.3838 34.3908 69.0959 34.3908C70.8081 34.3908 72.0256 35.5501 72.0256 37.3663C72.0256 39.2597 70.77 40.419 69.0579 40.419ZM69.0579 39.1824C69.933 39.1824 70.4276 38.5255 70.4276 37.4049C70.4276 36.207 69.933 35.5501 69.0579 35.5501C68.2208 35.5501 67.6882 36.207 67.6882 37.289C67.7262 38.5255 68.1828 39.1824 69.0579 39.1824ZM74.7651 31.8791V40.3031H73.2051V31.8791H74.7651ZM62.3234 40.419C60.6492 40.419 59.3937 39.2597 59.3937 37.4822C59.3937 35.5887 60.6492 34.3908 62.3614 34.3908C64.0736 34.3908 65.2911 35.5501 65.2911 37.3663C65.2911 39.2597 64.0355 40.419 62.3234 40.419ZM62.3614 39.1824C63.2365 39.1824 63.7311 38.5255 63.7311 37.4049C63.7311 36.207 63.2365 35.5501 62.3614 35.5501C61.5244 35.5501 60.9917 36.207 60.9917 37.289C60.9917 38.5255 61.4483 39.1824 62.3614 39.1824Z" fill="#1759F7"/>
<path d="M32.2648 21.8707V0.617554H0V21.8707C0 37.4434 16.1324 47.1812 16.1324 47.1812C16.1324 47.1812 32.2648 37.4434 32.2648 21.8707ZM16.1324 45.2878C13.7354 43.7034 1.63607 35.1249 1.63607 21.8707V2.27916H30.6288V21.8707C30.6288 35.0863 18.5295 43.6648 16.1324 45.2878Z" fill="#1759F7"/>
<path d="M17.5026 37.9843H18.9104C18.7582 39.5686 17.6167 40.3028 16.247 40.3028C14.4968 40.3028 13.3553 39.0663 13.3553 37.366C13.3553 35.4339 14.6109 34.2747 16.247 34.2747C17.6928 34.2747 18.7201 35.0089 18.8723 36.5159H17.4265C17.3124 35.859 16.9319 35.5112 16.2851 35.5112C15.448 35.5112 14.9534 36.1295 14.9534 37.2501C14.9534 38.5639 15.448 39.1049 16.3231 39.1049C16.9319 39.1049 17.4265 38.7185 17.5026 37.9843Z" fill="#1759F7"/>
<path d="M24.6927 18.277C23.0566 18.277 21.6869 19.3589 20.9259 20.2091H18.1104L21.3064 16.9631C22.4098 17.0018 24.122 16.7699 25.3015 15.6107C27.1658 13.7558 26.5571 10.4713 26.5571 10.4713C26.5571 10.4713 23.361 9.853 21.4966 11.7465C20.3552 12.8671 20.165 14.6446 20.165 15.8039L16.9689 19.0498V13.6399C17.7299 12.8671 18.8713 11.476 18.8713 9.81436C18.8713 7.18671 16.1319 5.29324 16.1319 5.29324C16.1319 5.29324 13.4304 7.22535 13.4304 9.81436C13.4304 11.476 14.4958 12.8671 15.3328 13.6399V19.0498L12.1368 15.8039C12.1368 14.6833 11.9466 12.9057 10.8051 11.7465C8.94075 9.853 5.7447 10.4713 5.7447 10.4713C5.7447 10.4713 5.13594 13.7558 6.96225 15.6107C8.1037 16.7699 9.85391 17.0018 10.9954 16.9631L14.1914 20.2091H11.3758C10.5768 19.3976 9.20709 18.277 7.60907 18.277C4.98375 18.277 3.11938 21.0592 3.11938 21.0592C3.11938 21.0592 5.02179 23.8028 7.60907 23.8028C9.24514 23.8028 10.6149 22.7208 11.3758 21.8707H15.0665L14.2675 27.5124C14.0392 29.0967 12.8978 29.6377 12.5934 29.7536H11.5661V31.4152H20.7357V29.7536H19.6703C19.3659 29.6377 18.2245 29.0967 17.9962 27.5124L17.1972 21.8707H20.9259C21.6869 22.6821 23.0186 23.8028 24.6927 23.8028C27.2039 23.8028 29.1824 21.0592 29.1824 21.0592C29.1824 21.0592 27.2419 18.277 24.6927 18.277ZM22.6381 12.9057C23.2849 12.2488 24.3122 12.0556 24.9971 12.017C24.959 12.7125 24.7688 13.7945 24.122 14.4128C23.4752 15.0697 22.4478 15.2629 21.763 15.3015C21.801 14.606 21.9532 13.524 22.6381 12.9057ZM8.06564 14.4128C7.41883 13.7558 7.26663 12.7125 7.22859 12.017C7.91345 12.0556 8.94075 12.2488 9.58757 12.9057C10.2344 13.5626 10.3866 14.606 10.4246 15.3015C9.73976 15.2629 8.71246 15.0697 8.06564 14.4128ZM7.53297 22.1025C6.61982 22.1025 5.74471 21.4842 5.25008 21.0205C5.74471 20.5182 6.61982 19.9386 7.53297 19.9386C8.44613 19.9386 9.28319 20.5568 9.81586 21.0205C9.28319 21.5229 8.44613 22.1025 7.53297 22.1025ZM15.0285 9.77572C15.0285 8.84831 15.6753 7.99819 16.0938 7.4572C16.5884 7.99819 17.1592 8.84831 17.1592 9.77572C17.1592 10.7418 16.5504 11.5919 16.0938 12.1329C15.6372 11.5919 15.0285 10.7031 15.0285 9.77572ZM16.0938 29.7536H15.0285C15.7514 28.6717 15.7514 27.7443 15.9797 25.8508H16.2079C16.4362 27.7443 16.3982 28.6717 17.1592 29.7536H16.0938ZM24.6927 22.1025C23.7795 22.1025 22.9044 21.4842 22.4098 21.0205C22.9044 20.5568 23.7795 19.9386 24.6927 19.9386C25.6058 19.9386 26.4429 20.5568 26.9756 21.0205C26.4429 21.5229 25.6058 22.1025 24.6927 22.1025Z" fill="#1759F7"/>
</svg>
