<svg version="1.2" baseProfile="tiny-ps" xmlns="http://www.w3.org/2000/svg" viewBox="0 0 248 62" width="248" height="62">
	<title>logo-svg</title>
	<style>
		tspan { white-space:pre }
		.s0 { fill: #ffffff } 
	</style>
	<path id="Layer" fill-rule="evenodd" class="s0" d="m59.88 24.98h4.54c2.53 0 3.85 0.93 3.85 2.73c0 1.24-0.57 2.01-1.89 2.32c1.49 0.31 2.3 1.08 2.3 2.47c0 2.06-1.32 3.04-4.02 3.04h-4.77v-10.56zm2.53 1.6v2.73h1.55c1.26 0 1.78-0.41 1.78-1.39c0-0.93-0.52-1.34-1.78-1.34h-1.55zm0 4.27v3.04h1.78c1.26 0 1.84-0.57 1.84-1.49c0-1.03-0.57-1.54-2.01-1.54h-1.61zm15.9 4.69h-2.35v-1.24c-0.46 0.77-1.26 1.39-2.7 1.39c-1.95 0-2.87-1.29-2.87-2.94v-5h2.35v4.69c0 1.03 0.52 1.54 1.49 1.54c0.98 0 1.72-0.57 1.72-1.7v-4.53h2.35v7.78zm1.61-2.42h2.18c0.11 0.67 0.46 1.08 1.49 1.08c0.92 0 1.32-0.31 1.32-0.82c0-0.52-0.52-0.77-1.72-0.93c-1.15-0.15-1.89-0.36-2.41-0.77c-0.52-0.36-0.75-0.88-0.75-1.65c0-1.7 1.84-2.42 3.33-2.42c1.84 0 3.27 0.67 3.5 2.42h-2.12c-0.11-0.62-0.52-0.93-1.32-0.93c-0.75 0-1.21 0.31-1.21 0.82c0 0.52 0.4 0.67 1.61 0.88c1.78 0.26 3.27 0.67 3.27 2.42c0 1.7-1.32 2.58-3.56 2.58c-2.18-0.1-3.5-1.03-3.62-2.68zm8.78-7.52c0-0.67 0.57-1.18 1.32-1.18c0.75 0 1.32 0.52 1.32 1.18c0 0.67-0.57 1.18-1.32 1.18c-0.75-0.05-1.32-0.51-1.32-1.18zm2.53 2.21v7.72h-2.3v-7.72h2.3zm4.65 1.24c0.46-0.77 1.32-1.44 2.76-1.44c0.86 0 1.55 0.26 2.01 0.72c0.52 0.46 0.8 1.24 0.8 2.27v4.89h-2.35v-4.63c0-1.08-0.46-1.54-1.49-1.54c-0.98 0-1.72 0.57-1.72 1.7v4.48h-2.35v-7.72h2.35v1.29zm15.67 4.07c-0.29 1.65-1.72 2.57-4.02 2.57c-2.58 0-4.42-1.6-4.42-3.91c0-2.57 1.84-4.17 4.36-4.17c2.7 0 4.13 1.7 4.13 3.97v0.57h-6.09c0.06 1.29 0.8 2.01 2.12 2.01c1.09 0 1.61-0.41 1.78-1.08h2.12v0.05zm-4.08-4.02c-1.03 0-1.78 0.62-1.95 1.75h3.79c-0.06-1.18-0.69-1.75-1.84-1.75zm5.22 4.02h2.18c0.11 0.67 0.46 1.08 1.49 1.08c0.92 0 1.32-0.31 1.32-0.82c0-0.52-0.52-0.77-1.72-0.93c-1.15-0.15-1.89-0.36-2.41-0.77c-0.52-0.36-0.75-0.88-0.75-1.65c0-1.7 1.84-2.42 3.33-2.42c1.84 0 3.27 0.67 3.5 2.42h-2.12c-0.11-0.62-0.52-0.93-1.32-0.93c-0.75 0-1.21 0.31-1.21 0.82c0 0.52 0.4 0.67 1.61 0.88c1.78 0.26 3.27 0.67 3.27 2.42c0 1.7-1.32 2.58-3.56 2.58c-2.18-0.1-3.5-1.03-3.62-2.68zm8.38 0h2.18c0.11 0.67 0.46 1.08 1.49 1.08c0.92 0 1.32-0.31 1.32-0.82c0-0.52-0.52-0.77-1.72-0.93c-1.15-0.15-1.89-0.36-2.41-0.77c-0.52-0.36-0.75-0.88-0.75-1.65c0-1.7 1.84-2.42 3.33-2.42c1.84 0 3.27 0.67 3.5 2.42h-2.12c-0.12-0.62-0.52-0.93-1.32-0.93c-0.75 0-1.21 0.31-1.21 0.82c0 0.52 0.4 0.67 1.61 0.88c1.78 0.26 3.27 0.67 3.27 2.42c0 1.7-1.32 2.58-3.56 2.58c-2.24-0.1-3.56-1.03-3.62-2.68z" />
	<path id="Layer" class="s0" d="m70.16 13.24c-0.29 2.63-2.35 3.97-5.17 3.97c-3.73 0-5.8-2.06-5.8-5.41c0-3.19 2.35-5.51 5.74-5.51c2.76 0 4.82 1.34 5.11 3.86h-2.7c-0.17-1.29-0.92-1.96-2.41-1.96c-1.84 0-2.99 1.29-2.99 3.5c0 2.32 1.09 3.6 2.99 3.6c1.44 0 2.41-0.67 2.64-2.01h2.58v-0.05zm1.55-6.18c0-0.67 0.57-1.18 1.32-1.18c0.75 0 1.32 0.51 1.32 1.18c0 0.67-0.57 1.18-1.32 1.18c-0.75 0-1.32-0.51-1.32-1.18zm2.47 2.27v7.72h-2.3v-7.72h2.3zm2.7 5.41v-3.91h-1.09v-1.49h1.09v-1.7h2.35v1.7h1.78v1.49h-1.78v3.71c0 0.62 0.29 0.93 0.92 0.93c0.34 0 0.63-0.05 0.92-0.15v1.65c-0.34 0.1-0.8 0.21-1.44 0.21c-1.78 0-2.76-0.82-2.76-2.42zm5.11-5.41h2.53l2.01 4.63l1.89-4.63h2.24l-4.59 10.35h-2.24l1.49-3.4l-3.33-6.95z" />
	<path id="Layer" fill-rule="evenodd" class="s0" d="m59.54 49.54h2.47c0.23 1.29 0.98 1.75 2.3 1.75c1.15 0 1.89-0.57 1.89-1.39c0-1.08-1.26-1.24-2.18-1.39c-2.35-0.31-4.13-0.93-4.13-3.19c0-2.11 2.24-3.14 4.19-3.14c2.58 0 4.13 1.03 4.31 3.14h-2.41c-0.17-0.93-0.8-1.39-1.95-1.39c-1.15 0-1.72 0.46-1.72 1.18c0 1.08 1.26 1.24 2.12 1.34c2.35 0.31 4.25 0.88 4.25 3.19c0 2.21-2.24 3.35-4.42 3.35c-2.58 0.05-4.54-0.98-4.71-3.45zm16.76 0.36h2.12c-0.23 2.11-1.95 3.09-4.02 3.09c-2.64 0-4.36-1.65-4.36-3.91c0-2.58 1.89-4.12 4.36-4.12c2.18 0 3.73 0.98 3.96 2.99h-2.18c-0.17-0.88-0.75-1.34-1.72-1.34c-1.26 0-2.01 0.82-2.01 2.32c0 1.75 0.75 2.47 2.07 2.47c0.92 0.05 1.66-0.46 1.78-1.49zm3.73-8.24h2.35v4.74c0.46-0.77 1.32-1.39 2.76-1.39c2.01 0 2.81 1.39 2.81 2.99v4.94h-2.3v-4.63c0-1.08-0.46-1.55-1.49-1.55c-1.03 0-1.78 0.57-1.78 1.7v4.48h-2.35v-11.28zm24.17 11.38c-2.53 0-4.42-1.54-4.42-3.91c0-2.52 1.89-4.12 4.48-4.12c2.58 0 4.42 1.54 4.42 3.97c0 2.52-1.89 4.07-4.48 4.07zm0-1.65c1.32 0 2.07-0.88 2.07-2.37c0-1.6-0.75-2.47-2.07-2.47c-1.26 0-2.07 0.88-2.07 2.32c0.06 1.65 0.75 2.52 2.07 2.52zm8.61-9.73v11.23h-2.35v-11.23h2.35zm-18.77 11.38c-2.53 0-4.42-1.54-4.42-3.91c0-2.52 1.89-4.12 4.48-4.12c2.58 0 4.42 1.54 4.42 3.97c0 2.52-1.89 4.07-4.48 4.07zm0.06-1.65c1.32 0 2.07-0.88 2.07-2.37c0-1.6-0.75-2.47-2.07-2.47c-1.26 0-2.07 0.88-2.07 2.32c0 1.65 0.69 2.52 2.07 2.52z" />
	<path id="Layer" fill-rule="evenodd" class="s0" d="m24.34 62.06c0 0-24.34-12.98-24.34-33.73v-28.32h48.69v28.32c0 20.75-24.34 33.73-24.34 33.73zm21.87-33.73v-26.11h-43.75v26.11c0 17.66 18.26 29.1 21.87 31.21c3.62-2.16 21.87-13.6 21.87-31.21z" />
	<path id="Layer" class="s0" d="m26.41 49.8h2.12c-0.23 2.11-1.95 3.09-4.02 3.09c-2.64 0-4.36-1.65-4.36-3.91c0-2.57 1.89-4.12 4.36-4.12c2.18 0 3.73 0.98 3.96 2.99h-2.18c-0.17-0.88-0.75-1.34-1.72-1.34c-1.26 0-2.01 0.82-2.01 2.32c0 1.75 0.75 2.47 2.07 2.47c0.92 0 1.66-0.52 1.78-1.49z" />
	<path id="Layer" fill-rule="evenodd" class="s0" d="m44.03 27.24c0 0-2.99 3.66-6.77 3.66c-2.53 0-4.54-1.49-5.68-2.57h-5.63l1.21 7.52c0.34 2.11 2.07 2.83 2.53 2.99h1.61v2.21h-13.84v-2.21h1.55c0.46-0.15 2.18-0.88 2.53-2.99l1.21-7.52h-5.57c-1.15 1.13-3.22 2.57-5.68 2.57c-3.9 0-6.77-3.66-6.77-3.66c0 0 2.81-3.71 6.77-3.71c2.41 0 4.48 1.49 5.68 2.57h4.25l-4.82-4.33c-1.72 0.05-4.36-0.26-6.09-1.8c-2.76-2.47-1.84-6.85-1.84-6.85c0 0 4.82-0.82 7.64 1.7c1.72 1.54 2.01 3.91 2.01 5.41l4.82 4.33v-7.21c-1.26-1.03-2.87-2.88-2.87-5.1c0-3.45 4.08-6.03 4.08-6.03c0 0 4.13 2.52 4.13 6.03c0 2.21-1.72 4.07-2.87 5.1v7.21l4.82-4.33c0-1.55 0.29-3.91 2.01-5.41c2.81-2.52 7.64-1.7 7.64-1.7c0 0 0.92 4.38-1.89 6.85c-1.78 1.54-4.36 1.85-6.03 1.8l-4.82 4.33h4.25c1.15-1.13 3.22-2.57 5.68-2.57c3.85 0 6.77 3.71 6.77 3.71zm-11.2-7.67c1.03-0.05 2.58-0.31 3.56-1.18c0.98-0.82 1.26-2.27 1.32-3.19c-1.03 0.05-2.58 0.31-3.56 1.18c-1.03 0.82-1.26 2.27-1.32 3.19zm-17.11 0c-0.06-0.93-0.29-2.32-1.26-3.19c-0.98-0.88-2.53-1.13-3.56-1.18c0.06 0.93 0.29 2.32 1.26 3.19c0.98 0.88 2.53 1.13 3.56 1.18zm-0.92 7.62c-0.8-0.62-2.07-1.44-3.44-1.44c-1.38 0-2.7 0.77-3.44 1.44c0.75 0.62 2.07 1.44 3.44 1.44c1.38 0 2.64-0.77 3.44-1.44zm9.47-11.84c0.69-0.72 1.61-1.85 1.61-3.14c0-1.24-0.86-2.37-1.61-3.09c-0.63 0.72-1.61 1.85-1.61 3.09c0 1.24 0.92 2.42 1.61 3.14zm1.61 23.48c-1.15-1.44-1.09-2.68-1.44-5.2h-0.34c-0.34 2.52-0.34 3.76-1.44 5.2h3.22zm14.81-11.64c-0.8-0.62-2.07-1.44-3.44-1.44c-1.38 0-2.7 0.82-3.44 1.44c0.75 0.62 2.07 1.44 3.44 1.44c1.38 0 2.64-0.77 3.44-1.44z" />
	<path id="Layer" class="s0" d="m183.49 24.72v8.65h4.82v1.49h-6.95v-10.15h2.12z" />
	<path id="Layer" fill-rule="evenodd" class="s0" d="m189.29 31.26v-0.1c0-2.32 1.78-3.81 4.13-3.81c2.07 0 3.9 1.08 3.9 3.76v0.51h-6.03c0.06 1.44 0.86 2.21 2.3 2.21c1.15 0 1.78-0.41 1.89-1.13h1.84c-0.29 1.6-1.66 2.42-3.79 2.42c-2.53-0.1-4.25-1.55-4.25-3.86zm4.13-2.73c-1.15 0-1.95 0.67-2.13 1.85h4.13c-0.11-1.29-0.8-1.85-2.01-1.85z" />
	<path id="Layer" class="s0" d="m200.14 27.45l2.18 5.66l2.12-5.66h1.9l-2.99 7.42h-2.24l-3.04-7.42h2.07z" />
	<path id="Layer" fill-rule="evenodd" class="s0" d="m206.92 31.26v-0.1c0-2.32 1.78-3.81 4.13-3.81c2.07 0 3.9 1.08 3.9 3.76v0.51h-6.03c0.06 1.44 0.86 2.21 2.3 2.21c1.15 0 1.78-0.41 1.89-1.13h1.84c-0.29 1.6-1.67 2.42-3.79 2.42c-2.47-0.1-4.25-1.55-4.25-3.86zm4.13-2.73c-1.15 0-1.95 0.67-2.13 1.85h4.13c-0.12-1.29-0.8-1.85-2.01-1.85z" />
	<path id="Layer" class="s0" d="m218.69 24v10.87h-1.9v-10.87h1.9z" />
	<path id="Layer" class="s0" d="m224.83 32.19v-4.74h1.89v4.53c0 1.13 0.52 1.65 1.61 1.65c1.03 0 1.95-0.62 1.95-1.75v-4.43h1.9v7.42h-1.9v-1.18c-0.4 0.72-1.26 1.29-2.64 1.29c-1.61 0.05-2.81-0.77-2.81-2.78z" />
	<path id="Layer" fill-rule="evenodd" class="s0" d="m236.43 27.45v1.18c0.46-0.72 1.49-1.34 2.7-1.34c2.07 0 3.67 1.39 3.67 3.76v0.1c0 2.37-1.55 3.81-3.67 3.81c-1.32 0-2.24-0.57-2.7-1.29v3.71h-1.9v-9.94h1.9zm4.42 3.76v-0.1c0-1.65-0.98-2.47-2.18-2.47c-1.32 0-2.3 0.77-2.3 2.47v0.1c0 1.65 0.92 2.42 2.3 2.42c1.44 0 2.18-0.82 2.18-2.42z" />
	<path id="Layer" class="s0" d="m244.52 33.89c0-0.62 0.58-1.08 1.26-1.08c0.69 0 1.26 0.46 1.26 1.08c0 0.62-0.58 1.08-1.26 1.08c-0.69 0-1.26-0.46-1.26-1.08zm2.35-9.17l-0.29 7.11h-1.55l-0.29-7.11h2.12z" />
	<path id="Layer" class="s0" d="m156.57 54.81h-1.21v-46.81h1.21v46.81z" />
</svg>